<svg width="171" height="31" viewBox="0 0 171 31" fill="none" xmlns="http://www.w3.org/2000/svg">
<g opacity="0.4" clip-path="url(#clip0_94_692)">
<path d="M17.8989 30.2377H15.4276L15.088 28.2108H14.7893C13.6532 29.7866 11.6211 30.5745 8.69296 30.5745C5.76485 30.5745 3.7386 30.0959 2.49708 29.1386C1.25556 28.1813 0.705078 26.4617 0.705078 23.9975C0.705078 21.5334 1.31998 19.8079 2.46194 18.8447C3.51606 17.9642 5.24365 17.5211 7.6447 17.527H14.842V15.1337C14.842 13.6328 14.5921 12.6952 14.0924 12.321C13.3135 11.7714 11.9314 11.4878 9.94619 11.4878C7.52953 11.4878 6.003 11.8403 5.36663 12.5455C5.13824 12.7996 4.92741 13.5678 4.74587 14.856H1.81776C1.7592 13.7214 1.73577 13.0241 1.73577 12.7878C1.67268 12.0693 1.86809 11.3519 2.28626 10.7668C3.31695 9.51408 5.62625 8.86406 9.21416 8.81679C13.0676 8.78724 15.5564 9.37817 16.6984 10.5896C17.3373 11.3296 17.7143 12.2629 17.7701 13.2428C17.8521 13.944 17.895 15.6124 17.8989 18.2479V30.2377ZM14.801 22.8571V20.0088H9.57139C7.42411 20.0088 6.05766 20.1507 5.47204 20.4343C4.41792 20.9366 3.89086 22.2071 3.89086 24.1807C3.89086 25.5871 4.15244 26.5149 4.6756 26.964C5.45447 27.6494 6.83654 27.9922 8.83351 27.9922C10.8305 27.9922 12.2711 27.7794 13.1086 27.3717C14.2642 26.7808 14.842 25.2877 14.842 22.8925L14.801 22.8571Z" fill="white"/>
<path d="M39.0165 12.9885C39.0448 13.2337 39.0585 13.4804 39.0575 13.7272C39.0575 13.8749 39.0575 14.3536 38.9755 15.1749H35.8776L35.6726 13.8631C35.6149 13.3214 35.3988 12.8092 35.0519 12.3917C34.4975 11.7772 33.0978 11.4699 30.853 11.4699C28.4461 11.4699 26.8473 11.9662 26.0333 12.9472C25.2193 13.9281 24.6864 16.4159 24.6864 20.1978C24.6864 23.3592 25.0085 25.4215 25.6468 26.367C26.4276 27.474 28.1454 28.0255 30.8003 28.0216C33.0315 28.0216 34.4428 27.7202 35.0343 27.1056C35.3447 26.7629 35.6199 25.8588 35.7898 24.3165H38.8877C38.9521 24.7667 38.9873 25.2207 38.9931 25.6756C38.9988 25.9522 38.9832 26.2288 38.9463 26.5029C38.6964 29.2172 35.8874 30.5743 30.5192 30.5743C26.7321 30.5743 24.2393 29.686 23.0408 27.9093C22.135 26.4556 21.6802 23.5778 21.6763 19.2759C21.6763 15.9431 22.0882 13.542 22.9119 12.0726C23.5426 11.0395 24.4816 10.2347 25.5941 9.77393C27.1735 9.10613 28.8781 8.79358 30.5894 8.858C35.9537 8.858 38.7628 10.2348 39.0165 12.9885Z" fill="white"/>
<path d="M60.2338 12.9885C60.2338 13.2899 60.2748 13.5381 60.2748 13.7272C60.2733 14.2109 60.2459 14.6942 60.1928 15.1749H57.0949L56.8899 13.8631C56.8301 13.3219 56.6143 12.8103 56.2692 12.3917C55.707 11.7771 54.3054 11.4699 52.0644 11.4699C49.6633 11.4699 48.0607 11.9623 47.2564 12.9472C46.339 13.999 45.8802 16.4159 45.8802 20.1978C45.8802 23.3592 46.2023 25.4215 46.8465 26.367C47.6273 27.474 49.3452 28.0255 52 28.0216C54.2371 28.0216 55.6484 27.7202 56.2282 27.1056C56.5444 26.7629 56.8138 25.8588 56.9836 24.3165H60.0816C60.1411 24.7672 60.1744 25.221 60.1811 25.6756C60.1811 25.912 60.1811 26.1897 60.146 26.5029C59.8961 29.2172 57.0929 30.5743 51.7365 30.5743C47.9611 30.5743 45.4722 29.6899 44.2698 27.9211C43.325 26.4674 42.8545 23.5897 42.8584 19.2877C42.8584 15.955 43.2703 13.5538 44.0941 12.0844C44.7198 11.0507 45.6579 10.247 46.7704 9.79165C48.3387 9.11964 50.0335 8.80101 51.7365 8.85799C57.1437 8.85799 59.9762 10.2348 60.2338 12.9885Z" fill="white"/>
<path d="M81.4389 18.5021C81.4389 19.1698 81.4389 19.8257 81.3979 20.4639H67.2142V21.2617C67.2142 23.7613 67.5363 25.4631 68.1746 26.3554C68.9652 27.425 70.5171 27.9509 72.8244 27.9509C75.4187 27.9509 76.9706 27.6614 77.5094 27.0882C77.9545 26.6272 78.2063 25.7054 78.2649 24.3167H81.3628C81.4215 24.7676 81.4567 25.2213 81.4682 25.6759C81.4733 25.9662 81.4576 26.2565 81.4214 26.5445C81.152 29.2312 78.4464 30.5746 73.3046 30.5746C70.3492 30.5746 68.2351 30.1019 66.9624 29.1564C65.1001 27.7618 64.1689 24.758 64.1689 20.1448C64.1689 16.2054 64.7116 13.4477 65.797 11.8719C67.101 9.87463 69.5215 8.87598 73.0587 8.87598C76.4865 8.87598 78.8134 9.74857 80.0393 11.4938C80.9685 12.8292 81.435 15.1653 81.4389 18.5021ZM78.5108 17.8757C78.5403 16.7159 78.4282 15.5569 78.177 14.4247C77.6734 12.455 75.9868 11.4701 73.1172 11.4701C70.9504 11.4701 69.4552 11.8779 68.6314 12.6933C67.8076 13.5088 67.3352 15.2303 67.2142 17.858L78.5108 17.8757Z" fill="white"/>
<path d="M102.884 30.2908H100.407L100.015 28.0098C98.9528 29.759 96.9031 30.6335 93.8657 30.6335C90.5121 30.6335 88.2613 29.6999 87.1135 27.8326C86.1726 26.2843 85.7021 23.576 85.7021 19.7074C85.7021 15.4961 86.3932 12.636 87.7752 11.1272C89.1456 9.63219 91.289 8.87581 94.1234 8.87581C94.9315 8.88961 95.7369 8.97463 96.5303 9.12991C97.679 9.28424 98.7925 9.63811 99.8215 10.1758V0.000183105H102.914L102.884 30.2908ZM99.7863 12.3032L99.2007 12.1732C97.8452 11.8726 96.4599 11.7298 95.0721 11.7477C93.8352 11.6834 92.5994 11.8953 91.453 12.3682C90.3754 12.8882 89.6473 13.9302 89.2686 15.4941C89.0101 16.7592 88.8942 18.0497 88.9231 19.341C88.9231 22.0947 89.1105 24.0684 89.4736 25.1734C90.0553 26.9934 91.6306 27.9035 94.1995 27.9035C96.296 27.9035 97.8265 27.5686 98.7908 26.8989C99.0825 26.6589 99.3196 26.3584 99.4863 26.018C99.653 25.6775 99.7454 25.3048 99.7571 24.9252C99.7571 24.6298 99.7922 23.8557 99.7922 22.6088L99.7863 12.3032Z" fill="white"/>
<path d="M124.353 19.731C124.353 24.092 123.768 26.9934 122.596 28.4175C121.425 29.8417 119.083 30.5744 115.569 30.5744C112.055 30.5744 109.648 29.8653 108.489 28.4294C107.329 26.9934 106.732 24.1038 106.732 19.7428C106.732 15.3818 107.318 12.3563 108.489 10.9381C109.66 9.51989 112.003 8.80487 115.516 8.80487C119.128 8.80487 121.523 9.55534 122.702 11.0563C123.803 12.4863 124.353 15.3779 124.353 19.731ZM121.255 19.731C121.255 16.0988 120.976 13.8435 120.418 12.965C119.75 11.919 118.116 11.399 115.528 11.399C113.051 11.399 111.47 11.8777 110.79 12.8231C110.111 13.7686 109.765 16.0732 109.771 19.731C109.777 23.3888 110.093 25.6402 110.732 26.6093C111.37 27.5784 112.975 28.0453 115.528 28.0453C118.081 28.0453 119.627 27.5725 120.295 26.6093C120.963 25.6461 121.279 23.3652 121.279 19.731H121.255Z" fill="white"/>
<path d="M152.709 13.5679H159.257V7.68826C159.222 6.47675 159.663 5.30037 160.483 4.41505C161.303 3.52974 162.437 3.00712 163.637 2.96089H165.148C164.771 2.0982 164.159 1.36191 163.382 0.838523C162.605 0.31514 161.696 0.0264177 160.762 0.00628662H135.053C132.324 0.00628662 130.099 2.41133 130.099 5.36594V17.6394C130.099 20.594 132.318 22.9931 135.053 22.9931H140.136C140.283 26.5386 132.705 30.1551 130.011 30.1551C135.071 31.8156 144.968 27.49 147.685 22.9931V18.9867C147.755 15.9848 149.963 13.5679 152.709 13.5679Z" fill="white"/>
<path d="M142.713 8.84647C141.805 8.68101 140.85 8.81101 140.113 8.096C139.375 7.38098 139.275 6.32324 139.146 5.2123C139.07 4.46774 138.883 3.13226 137.975 3.13226C137.202 3.13226 136.886 4.38502 136.804 5.01139C136.657 5.97459 136.739 6.97325 136.113 7.77099C135.775 8.20675 135.303 8.51656 134.772 8.65146C133.969 8.8642 131.58 8.57464 131.58 10.0165C131.58 10.832 132.816 11.1274 133.337 11.1983C134.198 11.3461 135.094 11.2692 135.814 11.9133C136.247 12.3187 136.54 12.8528 136.652 13.4379C136.862 14.3834 136.611 16.9834 137.993 16.9834C138.141 16.9688 138.284 16.9174 138.409 16.834C138.534 16.7505 138.636 16.6375 138.707 16.5048C139.504 15.258 138.93 13.4734 139.878 12.3034C140.122 12.0082 140.425 11.769 140.767 11.6018C141.109 11.4347 141.483 11.3434 141.864 11.3342L142.543 11.2633C143.158 11.1865 144.47 10.9974 144.47 10.0165C144.411 9.24239 143.24 8.94102 142.713 8.84647Z" fill="white"/>
<path d="M162.665 22.0329C162.196 22.0322 161.731 21.9502 161.289 21.7906C160.813 21.9505 160.315 22.0323 159.813 22.0329H146.783V23.8588C146.783 26.8134 149.014 29.2539 151.738 29.2539H162.8C165.558 29.2539 167.789 26.843 167.789 23.8588V21.8083C167.362 21.9567 166.912 22.0325 166.46 22.0329H162.665Z" fill="white"/>
<path d="M161.289 22.739C160.39 22.3904 159.619 21.7705 159.081 20.9637C158.543 20.1568 158.265 19.2024 158.285 18.2303V13.5443H151.738C148.991 13.5443 146.783 15.9553 146.783 18.9453V22.9813H159.79C160.299 22.9812 160.805 22.8994 161.289 22.739Z" fill="white"/>
<path d="M166.454 2.94928H164.205C164.561 3.70843 164.745 4.53808 164.744 5.37796V13.9877C165.672 14.44 166.451 15.1515 166.99 16.0377C167.529 16.9238 167.804 17.9474 167.783 18.9869V22.8042C168.694 22.4624 169.477 21.843 170.024 21.032C170.571 20.2209 170.854 19.2584 170.834 18.2778V7.7121C170.882 6.49767 170.45 5.31386 169.633 4.42079C168.816 3.52772 167.681 2.99845 166.477 2.94928H166.454Z" fill="white"/>
<path d="M158.214 7.69425V13.568H162.729C163.423 13.5694 164.108 13.7142 164.744 13.9935V5.37784C164.745 4.53795 164.561 3.7083 164.205 2.94916H162.589C161.385 2.9938 160.249 3.51862 159.429 4.40832C158.608 5.29803 158.172 6.47987 158.214 7.69425Z" fill="white"/>
<path d="M164.761 13.9877V17.6455C164.785 18.7554 164.464 19.8451 163.844 20.7617C163.223 21.6784 162.334 22.376 161.3 22.7569C161.742 22.9166 162.207 22.9985 162.677 22.9992H166.471C166.924 22.9989 167.373 22.923 167.801 22.7747V18.9869C167.821 17.9474 167.546 16.9238 167.007 16.0376C166.469 15.1515 165.689 14.44 164.761 13.9877Z" fill="white"/>
<path d="M158.22 13.5682V18.2601C158.216 19.2409 158.511 20.1992 159.065 21.0048C159.619 21.8105 160.406 22.4243 161.318 22.763C162.348 22.3791 163.234 21.6802 163.851 20.7638C164.469 19.8474 164.787 18.7593 164.762 17.6515V13.9878C164.124 13.7085 163.436 13.5637 162.741 13.5623L158.22 13.5682Z" fill="white"/>
</g>
<defs>
<clipPath id="clip0_94_692">
<rect width="170.152" height="30.6274" fill="white" transform="translate(0.705078)"/>
</clipPath>
</defs>
</svg>
