<svg width="192" height="25" viewBox="0 0 192 25" fill="none" xmlns="http://www.w3.org/2000/svg">
<g opacity="0.4">
<path fill-rule="evenodd" clip-rule="evenodd" d="M147.79 12.686V17.9957H149.505C150.514 17.9957 151.258 17.8948 151.726 17.7037C152.195 17.5004 152.575 17.1903 152.855 16.7688C153.144 16.3517 153.29 15.8971 153.29 15.4048C153.29 14.7906 153.088 14.2531 152.688 13.7955C152.286 13.3363 151.732 13.0247 151.03 12.8531C150.557 12.7386 149.739 12.686 148.572 12.686H147.79ZM147.79 6.8553V11.2889H148.581C149.543 11.2889 150.249 11.2016 150.698 11.0254C151.149 10.8463 151.512 10.5617 151.774 10.1779C152.037 9.78794 152.17 9.36039 152.17 8.88918C152.17 8.25839 151.944 7.75858 151.503 7.40178C151.06 7.03897 150.359 6.8553 149.391 6.8553H147.79ZM146.436 5.49888H149.166C150.264 5.49888 151.11 5.63286 151.697 5.89632C152.287 6.15375 152.752 6.5512 153.091 7.09166C153.437 7.63061 153.609 8.22979 153.609 8.88918C153.609 9.50642 153.46 10.0649 153.157 10.5738C152.855 11.0766 152.415 11.4846 151.83 11.7992C152.554 12.0446 153.105 12.3322 153.498 12.6649C153.885 12.9946 154.186 13.389 154.398 13.8602C154.619 14.3269 154.729 14.8282 154.729 15.3792C154.729 16.4887 154.323 17.4312 153.505 18.202C152.698 18.9682 151.608 19.3491 150.238 19.3491H146.436V5.49888V5.49888Z" fill="white"/>
<path d="M147.79 7.31962V6.85292V7.31962ZM148.254 10.8228H148.581C149.511 10.8258 150.182 10.7325 150.524 10.5925C150.901 10.4419 151.179 10.2206 151.388 9.91804C151.602 9.59888 151.703 9.2722 151.705 8.88981C151.697 8.36441 151.54 8.03772 151.208 7.76072C150.899 7.50178 150.304 7.3151 149.391 7.31962H148.256L148.254 10.8228ZM147.325 11.7532V6.85292V6.38924H149.391C150.413 6.39225 151.221 6.57441 151.795 7.0396C152.349 7.4792 152.642 8.14762 152.635 8.88981C152.636 9.44683 152.471 9.97977 152.159 10.4419C151.845 10.9011 151.4 11.2489 150.867 11.4581C150.315 11.6704 149.573 11.7517 148.581 11.7532H147.325V11.7532ZM147.79 13.1518V12.6836V13.1518ZM148.256 17.5281H149.505C150.482 17.5327 151.187 17.4273 151.54 17.2782C151.935 17.1036 152.236 16.8567 152.471 16.5044C152.712 16.1537 152.822 15.8029 152.825 15.4054C152.822 14.8921 152.668 14.4841 152.338 14.1017C152.007 13.7269 151.549 13.4604 150.922 13.3053C150.529 13.209 149.72 13.1473 148.573 13.1518H148.256V17.5281V17.5281ZM147.325 18.4585V12.6836V12.2184H147.79H148.573C149.756 12.2229 150.586 12.2711 151.14 12.4005C151.914 12.5872 152.563 12.947 153.037 13.4905C153.51 14.0234 153.758 14.6888 153.755 15.4054C153.756 15.9866 153.576 16.5466 153.242 17.0238C152.913 17.5206 152.457 17.8955 151.902 18.1348C151.327 18.3652 150.545 18.457 149.505 18.4585H147.325V18.4585ZM146.901 18.8831H150.238C151.524 18.8816 152.475 18.5338 153.186 17.8624C153.916 17.1638 154.261 16.375 154.265 15.3783C154.265 14.8906 154.169 14.4645 153.973 14.0505C153.788 13.6426 153.534 13.3068 153.196 13.0178C152.87 12.7393 152.368 12.4713 151.682 12.2395L150.669 11.8962L151.61 11.3904C152.132 11.1074 152.501 10.7611 152.757 10.3396C153.017 9.89697 153.144 9.42877 153.145 8.88981C153.144 8.31021 152.999 7.80889 152.697 7.33919C152.405 6.8755 152.022 6.54581 151.507 6.31999C151.018 6.10019 150.226 5.96169 149.166 5.96621H146.901V18.8831V18.8831ZM150.238 19.8149H145.97V5.49951V5.03433H149.166C150.303 5.03734 151.202 5.16681 151.884 5.4694C152.554 5.75996 153.1 6.22816 153.482 6.83937C153.877 7.4521 154.077 8.14762 154.076 8.88981C154.077 9.58082 153.902 10.2327 153.555 10.8153C153.359 11.1435 153.109 11.4355 152.811 11.6915C153.195 11.8721 153.523 12.0769 153.8 12.3102C154.235 12.6806 154.583 13.1352 154.818 13.6606C155.069 14.189 155.197 14.7671 155.196 15.3783C155.202 16.6023 154.726 17.6953 153.826 18.5383C152.924 19.3964 151.698 19.8149 150.253 19.8149H150.238V19.8149Z" fill="white"/>
<path fill-rule="evenodd" clip-rule="evenodd" d="M162.188 10.1137C161.453 10.1137 160.776 10.2959 160.153 10.6587C159.534 11.0155 159.036 11.5228 158.665 12.1747C158.301 12.8296 158.119 13.5191 158.119 14.2462C158.119 14.9673 158.304 15.6598 158.674 16.3207C159.048 16.9756 159.543 17.495 160.163 17.8638C160.791 18.2266 161.462 18.4088 162.178 18.4088C162.902 18.4088 163.585 18.2266 164.231 17.8638C164.877 17.498 165.375 17.0072 165.718 16.3839C166.069 15.7637 166.248 15.0637 166.248 14.2853C166.248 13.1005 165.854 12.1054 165.071 11.3105C164.29 10.5126 163.332 10.1152 162.188 10.1137ZM167.46 9.10504V19.3497H166.161V17.5898C165.609 18.2613 164.99 18.7656 164.297 19.1058C163.614 19.443 162.863 19.6132 162.047 19.6132C160.595 19.6132 159.356 19.0893 158.33 18.0384C157.304 16.9846 156.791 15.7065 156.791 14.201C156.791 12.7242 157.31 11.4656 158.346 10.4133C159.38 9.3685 160.627 8.84159 162.083 8.84159C162.926 8.84159 163.683 9.02074 164.362 9.38054C165.047 9.73733 165.646 10.2733 166.161 10.9869V9.10504H167.46Z" fill="white"/>
<path d="M159.924 18.2628C159.233 17.8519 158.679 17.2692 158.268 16.5481C157.863 15.824 157.651 15.0487 157.654 14.2463C157.651 13.4409 157.858 12.6655 158.26 11.9459C158.665 11.2248 159.231 10.6542 159.919 10.2568C160.61 9.85183 161.377 9.64709 162.188 9.64709V10.1138V10.579C161.53 10.579 160.943 10.737 160.384 11.0622C159.838 11.3784 159.403 11.8195 159.07 12.4006C158.742 12.9922 158.584 13.5959 158.582 14.2463C158.584 14.8876 158.745 15.4943 159.079 16.089C159.418 16.6851 159.853 17.1368 160.395 17.4604C160.958 17.7841 161.541 17.9422 162.176 17.9422C162.822 17.9422 163.419 17.7841 164.001 17.4589C164.58 17.1292 165.008 16.7032 165.313 16.1537C165.623 15.6042 165.782 14.9945 165.783 14.2854C165.777 13.2015 165.437 12.3494 164.735 11.6358C164.032 10.9207 163.224 10.585 162.188 10.579V10.1138L162.189 9.64709C163.439 9.64558 164.546 10.1017 165.401 10.9839C166.271 11.8586 166.716 12.9982 166.712 14.2854C166.712 15.1345 166.515 15.9188 166.126 16.6083C165.739 17.3069 165.173 17.8654 164.46 18.2704C163.749 18.6693 162.98 18.8741 162.176 18.8741C161.384 18.8741 160.624 18.6678 159.924 18.2628ZM158.679 10.7385C157.721 11.7156 157.259 12.8326 157.256 14.2026C157.259 15.6012 157.717 16.7378 158.661 17.7118C159.615 18.6814 160.708 19.1435 162.045 19.1465C162.798 19.1465 163.472 18.9945 164.094 18.6859C164.717 18.3803 165.285 17.9211 165.803 17.2933L166.626 16.2937V18.8831H166.995V9.56881H166.626V12.4232L165.786 11.2594C165.303 10.597 164.758 10.1123 164.145 9.79011C163.535 9.46794 162.859 9.30686 162.083 9.30535C160.741 9.31137 159.638 9.77505 158.679 10.7385ZM157.995 18.3637C156.889 17.2331 156.321 15.8104 156.326 14.2026C156.321 12.6128 156.901 11.2098 158.016 10.0867C159.123 8.95909 160.514 8.37197 162.083 8.37648C162.99 8.37648 163.832 8.57069 164.577 8.96813C164.979 9.17739 165.351 9.44084 165.696 9.76V8.63994H167.46V9.10512V8.63994H167.924V19.8135H165.696V18.731C165.324 19.0487 164.926 19.3137 164.502 19.5199C163.754 19.8933 162.926 20.0784 162.045 20.0784H162.022C160.469 20.0784 159.091 19.4913 157.995 18.3637" fill="white"/>
<path d="M170.425 9.1058H171.746V10.9425C172.274 10.2394 172.857 9.71552 173.496 9.37077C174.136 9.01698 174.833 8.84084 175.585 8.84084C176.354 8.84084 177.03 9.03806 177.618 9.42647C178.218 9.81488 178.656 10.3403 178.937 10.9967C179.222 11.6576 179.363 12.6858 179.363 14.0768V19.3505H178.053V14.4637C178.053 13.2804 178.001 12.4946 177.903 12.1002C177.743 11.4212 177.448 10.9169 177.018 10.5751C176.584 10.2289 176.02 10.0573 175.321 10.0573C174.526 10.0573 173.808 10.3207 173.176 10.8491C172.548 11.3745 172.134 12.0279 171.931 12.8062C171.807 13.3151 171.746 14.2439 171.746 15.5928V19.3505H170.425V9.1058Z" fill="white"/>
<path d="M175.321 9.59009C176.094 9.59009 176.777 9.7843 177.304 10.2088C177.836 10.6259 178.18 11.2446 178.353 11.9868C178.471 12.4731 178.516 13.2619 178.517 14.4633V18.8833H178.897V14.0779C178.9 12.7169 178.752 11.7324 178.51 11.1814C178.257 10.6003 177.888 10.1577 177.361 9.81441C176.851 9.47568 176.276 9.30707 175.585 9.30556C174.903 9.30707 174.292 9.46213 173.718 9.77978C173.148 10.0869 172.615 10.5611 172.116 11.2205L171.279 12.333V9.56902H170.891V18.8833H171.279V15.5924C171.279 14.2239 171.338 13.2875 171.482 12.6883C171.704 11.8212 172.181 11.0715 172.878 10.4919C173.581 9.90172 174.418 9.59009 175.315 9.59009H175.321ZM177.589 19.8152V14.4633C177.589 13.2996 177.531 12.5167 177.449 12.2066C177.306 11.5984 177.062 11.2039 176.726 10.939C176.392 10.671 175.948 10.525 175.321 10.522C174.629 10.525 174.034 10.7418 173.474 11.2055C172.914 11.6752 172.563 12.2337 172.384 12.9157C172.277 13.3387 172.208 14.263 172.21 15.5924V19.8152H169.96V9.10684V8.63864H172.21V9.7286C172.542 9.42148 172.896 9.16405 173.271 8.96232C173.977 8.56939 174.76 8.37519 175.585 8.37519C176.431 8.37519 177.209 8.59649 177.873 9.03608C178.546 9.47116 179.05 10.0764 179.364 10.8125C179.692 11.5818 179.826 12.6522 179.827 14.0779V19.8152H177.589V19.8152Z" fill="white"/>
<path d="M182.176 5.15022H183.505V13.2315L188.241 9.10658H190.179L184.562 13.9933L190.51 19.3497H188.648L183.505 14.746V19.3497H182.176V5.15022Z" fill="white"/>
<path d="M182.641 18.8838H183.04V14.253V13.7065V5.61466H182.641V18.8838ZM188.824 18.8838H189.296L183.859 13.9865L188.935 9.56951H188.414L183.35 13.9835L188.824 18.8838ZM188.468 19.8157L183.969 15.7871V19.8157H181.71V5.15098V4.68428H183.969V12.2086L188.065 8.63913H191.421L185.262 13.9986L191.723 19.8157H188.468V19.8157Z" fill="white"/>
<path d="M50.7461 5.15035H52.0634V19.3499H50.7461V5.15035Z" fill="white"/>
<path d="M51.2096 18.8838H51.598V5.61466H51.2111L51.2096 18.8838ZM50.2808 19.8157V5.15098V4.68428H52.5284V19.8157H50.2808V19.8157Z" fill="white"/>
<path d="M53.9976 9.10576H55.3916L58.9129 16.9959L62.3318 9.10576H63.7334L57.6227 23.096H56.2302L58.2068 18.5766L53.9976 9.10576Z" fill="white"/>
<path d="M58.7145 18.5753L56.9395 22.6295H57.3159L63.0216 9.56963H62.6362L58.9192 18.1523L55.0878 9.56963H54.7129L58.7145 18.5753ZM55.5169 23.5599L57.6968 18.5768L53.5718 9.29262L53.9978 9.10594L53.5718 9.29262L53.2812 8.63925H55.693L58.9072 15.8399L62.025 8.63925H64.4427L57.9271 23.5599H55.5169V23.5599Z" fill="white"/>
<path fill-rule="evenodd" clip-rule="evenodd" d="M70.0953 10.1137C69.3621 10.1137 68.6832 10.2959 68.0614 10.6587C67.4396 11.0155 66.9428 11.5228 66.5725 12.1747C66.2082 12.8296 66.0275 13.5191 66.0275 14.2462C66.0275 14.9673 66.2142 15.6598 66.5845 16.3207C66.9519 16.9756 67.4487 17.495 68.0704 17.8638C68.6982 18.2266 69.3712 18.4088 70.0847 18.4088C70.8089 18.4088 71.4923 18.2266 72.1382 17.8638C72.784 17.498 73.2823 17.0072 73.6256 16.3839C73.9764 15.7637 74.154 15.0637 74.154 14.2853C74.154 13.1005 73.7596 12.1054 72.9752 11.3105C72.1984 10.5126 71.2379 10.1152 70.0953 10.1137ZM75.3674 5.1502V19.3497H74.0682V17.5898C73.5172 18.2613 72.8954 18.7656 72.2044 19.1058C71.5194 19.443 70.7697 19.6132 69.9538 19.6132C68.5025 19.6132 67.265 19.0893 66.2338 18.0384C65.2101 16.9846 64.6997 15.7065 64.6997 14.201C64.6997 12.7242 65.2176 11.4656 66.2533 10.4133C67.2891 9.3685 68.5341 8.84159 69.9914 8.84159C70.8314 8.84159 71.5917 9.02074 72.2692 9.38054C72.9541 9.73734 73.5548 10.2733 74.0682 10.9869V5.1502H75.3674V5.1502Z" fill="white"/>
<path d="M67.8335 18.2628C67.141 17.8549 66.5824 17.2692 66.1775 16.5466C65.771 15.824 65.5632 15.0487 65.5632 14.2463C65.5632 13.4409 65.765 12.6655 66.1699 11.9429C66.5764 11.2248 67.1364 10.6542 67.8259 10.2583C68.5169 9.85183 69.2847 9.64709 70.0947 9.64709V10.1138V10.579C69.4398 10.579 68.8497 10.737 68.2926 11.0622C67.7446 11.3784 67.3111 11.818 66.9799 12.4006C66.6517 12.9907 66.4936 13.5959 66.4921 14.2463C66.4936 14.8876 66.6547 15.4943 66.9904 16.092C67.3231 16.6851 67.7597 17.1353 68.3047 17.4604C68.8647 17.7841 69.4503 17.9422 70.0856 17.9422C70.73 17.9422 71.3292 17.7841 71.9072 17.4589C72.4869 17.1292 72.9144 16.7032 73.22 16.1537C73.5316 15.6042 73.6882 14.9945 73.6882 14.2854C73.6837 13.2015 73.3435 12.3494 72.6419 11.6358C71.9419 10.9237 71.1304 10.585 70.0947 10.579V10.1138L70.0977 9.64709C71.3457 9.64559 72.4537 10.1017 73.3073 10.9839C74.1775 11.8586 74.6231 12.9982 74.6186 14.2854C74.6201 15.133 74.4244 15.9188 74.0315 16.6083C73.6476 17.3069 73.08 17.8654 72.3664 18.2704C71.6558 18.6693 70.8865 18.8741 70.0856 18.8741C69.2908 18.8741 68.529 18.6678 67.8335 18.2628ZM66.5839 10.7386C65.6295 11.7156 65.1703 12.8326 65.1643 14.2026C65.1688 15.6012 65.625 16.7378 66.5674 17.7118C67.5249 18.6814 68.6163 19.1435 69.9532 19.1465C70.7044 19.1465 71.3788 18.9945 72.0006 18.6859C72.6238 18.3803 73.1929 17.9211 73.7093 17.2933L74.5343 16.2877V18.8831H74.9016V5.61547H74.5343V12.4292L73.6912 11.2594C73.2125 10.597 72.6675 10.1123 72.0503 9.79011C71.4451 9.46794 70.7661 9.30686 69.9923 9.30535C68.6479 9.31137 67.5474 9.77506 66.5839 10.7386ZM65.9005 18.3622C64.7955 17.2316 64.2294 15.8104 64.2339 14.2026C64.2294 12.6128 64.806 11.2113 65.923 10.0867C67.0326 8.9591 68.4221 8.37197 69.9923 8.37648C70.8956 8.37648 71.7386 8.57069 72.4853 8.96813C72.8858 9.17739 73.2592 9.44084 73.6039 9.75699V4.68509H75.3683V5.14877V4.68509H75.832V19.8135H73.6039V18.7325C73.2321 19.0502 72.8346 19.3137 72.4116 19.5214C71.6604 19.8933 70.8323 20.0784 69.9532 20.0784H69.9306C68.3784 20.0784 67.001 19.4913 65.9005 18.3622" fill="white"/>
<path fill-rule="evenodd" clip-rule="evenodd" d="M86.9784 13.1939C86.8007 12.4893 86.5448 11.9278 86.2061 11.5063C85.8718 11.0847 85.4292 10.749 84.8782 10.4916C84.3257 10.2326 83.7461 10.1032 83.1364 10.1017C82.1323 10.1017 81.2681 10.4268 80.547 11.0757C80.0201 11.5424 79.6212 12.2515 79.3517 13.1939H86.9784ZM86.9784 15.9489L88.0894 16.5375C87.7251 17.2481 87.305 17.8277 86.8263 18.2688C86.3506 18.7084 85.8116 19.0411 85.217 19.2759C84.6208 19.5018 83.9464 19.6132 83.1936 19.6132C81.5226 19.6132 80.2188 19.0667 79.2764 17.9737C78.334 16.8762 77.8628 15.6402 77.8628 14.2567C77.8628 12.9575 78.2617 11.7998 79.0596 10.7836C80.0698 9.48743 81.4232 8.84159 83.1153 8.84159C84.8632 8.84159 86.2557 9.50549 87.299 10.8303C88.0382 11.7637 88.4146 12.9334 88.4266 14.332H79.2207C79.2448 15.5243 79.6242 16.5044 80.3588 17.2692C81.092 18.0279 81.9998 18.4088 83.0807 18.4088C83.6016 18.4088 84.1044 18.3185 84.5952 18.1363C85.0905 17.9541 85.512 17.7148 85.8583 17.4077C86.203 17.1096 86.5764 16.6233 86.9784 15.9489" fill="white"/>
<path d="M86.3485 12.7273C86.207 12.3464 86.0353 12.0378 85.8411 11.7939C85.5566 11.4356 85.1787 11.1465 84.6789 10.9117C84.1881 10.6813 83.6793 10.5684 83.1358 10.5669C82.231 10.5699 81.5009 10.8484 80.8566 11.422C80.5223 11.7186 80.2318 12.1477 80.0014 12.7273H86.3485ZM78.7339 13.6591L78.907 13.063C79.1915 12.0679 79.6221 11.2745 80.2363 10.728C81.0357 10.0054 82.0308 9.63354 83.1358 9.63655C83.8103 9.63806 84.4636 9.78108 85.0749 10.0686C85.68 10.3516 86.1874 10.7325 86.5683 11.2143C86.9612 11.7036 87.2397 12.3313 87.4294 13.0795L86.9778 13.1925V12.7273V13.1925L87.4294 13.0795L87.5754 13.6591H78.7339ZM79.4249 11.0698C78.6887 12.0122 78.3289 13.0509 78.3274 14.2568C78.3304 15.5319 78.7519 16.6445 79.6281 17.6712C80.4817 18.6528 81.6213 19.1405 83.193 19.1465C83.8991 19.1465 84.5178 19.0427 85.0462 18.8424C85.5897 18.6257 86.0775 18.3246 86.5111 17.9271C86.8498 17.6125 87.1659 17.2135 87.4535 16.7258L87.1449 16.5632C86.8122 17.075 86.493 17.4725 86.1648 17.757C85.7689 18.1078 85.2947 18.3742 84.7572 18.5715C84.2182 18.7717 83.6552 18.8741 83.0801 18.8741C81.8893 18.8801 80.8325 18.4375 80.0225 17.5914C79.2005 16.7408 78.7775 15.6253 78.7549 14.3426L78.7459 13.8669H87.9428C87.86 12.7619 87.5212 11.8616 86.9326 11.1179C85.9631 9.8985 84.7452 9.31438 83.1162 9.30535C81.54 9.31438 80.3643 9.87893 79.4249 11.0698ZM78.9235 18.2794C77.9179 17.1082 77.3925 15.7457 77.397 14.2568C77.394 12.8597 77.8336 11.5876 78.6917 10.4962C79.7756 9.09459 81.3022 8.36745 83.1162 8.37648C84.9785 8.36745 86.5472 9.11265 87.6612 10.5398C88.4757 11.5635 88.8807 12.8492 88.8912 14.3276L88.8957 14.7973H79.7169C79.8163 15.6719 80.1415 16.3675 80.6925 16.9441C81.3518 17.617 82.1091 17.9392 83.0801 17.9422C83.5468 17.9422 83.9924 17.8624 84.435 17.6998C84.8882 17.5327 85.254 17.3204 85.5521 17.057C85.8366 16.8131 86.1934 16.3599 86.5788 15.7111L86.8046 15.3317L88.7151 16.3389L88.5043 16.7499C88.1189 17.4981 87.6688 18.1228 87.1419 18.6091C86.624 19.0893 86.0338 19.4537 85.3805 19.7111C84.7241 19.9565 83.9924 20.0784 83.193 20.0784H83.1614C81.4075 20.0784 79.9473 19.4747 78.9235 18.2794Z" fill="white"/>
<path d="M96.0355 10.2278L95.1879 11.0994C94.4864 10.4175 93.7984 10.0757 93.1254 10.0757C92.7009 10.0757 92.3305 10.2187 92.0249 10.4988C91.7223 10.7833 91.5748 11.1115 91.5748 11.4878C91.5748 11.8221 91.6967 12.1352 91.9512 12.4378C92.1996 12.7479 92.728 13.1092 93.5319 13.5217C94.5089 14.0306 95.1759 14.5198 95.5296 14.991C95.8714 15.4683 96.0445 16.0042 96.046 16.6004C96.046 17.4419 95.7494 18.154 95.1608 18.7381C94.5692 19.3223 93.833 19.6143 92.9478 19.6143C92.3576 19.6143 91.7931 19.4848 91.2511 19.2274C90.7197 18.97 90.2771 18.6147 89.9248 18.1631L90.7528 17.2236C91.4257 17.9824 92.1363 18.3588 92.8906 18.3588C93.416 18.3588 93.8661 18.1917 94.2364 17.8544C94.6083 17.5142 94.792 17.1153 94.792 16.6576C94.792 16.2827 94.67 15.9425 94.4246 15.6489C94.1807 15.3614 93.6282 14.9986 92.7671 14.5545C91.8458 14.0787 91.218 13.609 90.8853 13.1454C90.5526 12.6817 90.3855 12.1472 90.3855 11.5541C90.3855 10.7758 90.6504 10.1299 91.1773 9.61655C91.7103 9.10018 92.3832 8.84124 93.1917 8.84124C94.1326 8.84124 95.0795 9.30492 96.0355 10.2278Z" fill="white"/>
<path d="M91.4521 18.807C91.9338 19.0359 92.4246 19.1458 92.947 19.1473C93.7314 19.1428 94.323 18.9034 94.8318 18.4081C95.3392 17.8993 95.5755 17.3317 95.5816 16.6015C95.5786 16.0942 95.4385 15.6652 95.157 15.2692C94.8815 14.8959 94.2628 14.4262 93.3189 13.9354C92.4909 13.5048 91.9278 13.142 91.5936 12.737C91.2865 12.3727 91.1073 11.9376 91.1103 11.4875C91.1043 10.9862 91.3256 10.5074 91.711 10.1552C92.0934 9.79837 92.5962 9.60567 93.1262 9.60868C93.8382 9.61169 94.5172 9.91579 95.1661 10.4517L95.3648 10.2485C94.5925 9.59664 93.8714 9.30608 93.1909 9.30759C92.4788 9.31211 91.9474 9.51986 91.5018 9.94741C91.0622 10.384 90.8559 10.8808 90.8499 11.5537C90.8529 12.0611 90.9884 12.4856 91.2624 12.874C91.5183 13.2338 92.0934 13.6885 92.9801 14.1416C93.8653 14.6008 94.4389 14.9576 94.7822 15.3475C95.0938 15.7178 95.2609 16.18 95.2579 16.6572C95.2609 17.2414 95.0005 17.7909 94.5518 18.1958C94.1002 18.6143 93.5146 18.8266 92.8913 18.8251C92.1235 18.8266 91.4054 18.4939 90.7701 17.9053L90.5428 18.1627C90.8017 18.4232 91.1013 18.6384 91.4521 18.807ZM92.947 20.0792C92.2891 20.0792 91.6508 19.9331 91.0486 19.6456C90.4555 19.3596 89.9526 18.9546 89.5567 18.4472L89.3188 18.1416L90.7536 16.5203L91.1028 16.9147C91.7246 17.6117 92.3012 17.8917 92.8913 17.8947C93.3189 17.8902 93.632 17.7698 93.9225 17.5093C94.2131 17.2353 94.3215 16.9854 94.326 16.6572C94.323 16.3818 94.2447 16.1635 94.0701 15.9497C93.9225 15.7645 93.3941 15.3927 92.5541 14.9681C91.5996 14.4713 90.9176 13.9805 90.5067 13.416C90.1167 12.8755 89.9195 12.2357 89.921 11.5537C89.915 10.67 90.2372 9.87665 90.8529 9.28049C91.4702 8.67831 92.2846 8.37119 93.1909 8.37571C94.2929 8.37571 95.3542 8.92219 96.3584 9.89171L96.0347 10.2274L96.3584 9.89171L96.6941 10.2154L95.1962 11.757L94.865 11.4318C94.2101 10.798 93.632 10.5391 93.1262 10.5406C92.804 10.5451 92.5661 10.6354 92.3448 10.8371C92.119 11.0554 92.0452 11.2361 92.0392 11.4875C92.0422 11.7013 92.1085 11.8985 92.3117 12.1469C92.4698 12.3516 92.9636 12.7129 93.7464 13.1089C94.7536 13.6373 95.4687 14.1431 95.9067 14.7197C96.3027 15.2692 96.5104 15.912 96.5104 16.6C96.5165 17.5515 96.1582 18.4081 95.4852 19.0705C94.8198 19.7344 93.9451 20.0792 92.9651 20.0792H92.947V20.0792Z" fill="white"/>
<path fill-rule="evenodd" clip-rule="evenodd" d="M103.324 10.1137C102.588 10.1137 101.911 10.2959 101.29 10.6587C100.669 11.0155 100.175 11.5228 99.8015 12.1747C99.4387 12.8296 99.2565 13.5191 99.2565 14.2462C99.2565 14.9673 99.4417 15.6598 99.8105 16.3207C100.181 16.9756 100.678 17.495 101.299 17.8638C101.927 18.2266 102.599 18.4088 103.314 18.4088C104.036 18.4088 104.721 18.2266 105.367 17.8638C106.013 17.498 106.508 17.0072 106.855 16.3839C107.207 15.7637 107.382 15.0637 107.382 14.2853C107.382 13.1005 106.99 12.1054 106.204 11.3105C105.427 10.5126 104.465 10.1152 103.324 10.1137ZM108.596 5.1502V19.3497H107.297V17.5898C106.745 18.2613 106.123 18.7656 105.433 19.1058C104.748 19.443 103.999 19.6132 103.183 19.6132C101.733 19.6132 100.493 19.0893 99.4628 18.0384C98.4406 16.9846 97.9287 15.7065 97.9287 14.201C97.9287 12.7242 98.4481 11.4656 99.4823 10.4133C100.517 9.3685 101.763 8.84159 103.219 8.84159C104.06 8.84159 104.821 9.02074 105.5 9.38054C106.183 9.73734 106.781 10.2733 107.297 10.9869V5.1502H108.596V5.1502Z" fill="white"/>
<path d="M101.523 11.0617C100.973 11.3778 100.543 11.8174 100.208 12.3985C99.8817 12.9917 99.7221 13.5954 99.7191 14.2457C99.7221 14.8871 99.8832 15.4938 100.216 16.0899C100.552 16.6846 100.987 17.1362 101.532 17.4599C102.095 17.7851 102.679 17.9431 103.314 17.9431C103.958 17.9431 104.556 17.7851 105.137 17.4569C105.717 17.1302 106.141 16.7041 106.45 16.1531C106.759 15.6052 106.914 14.9939 106.917 14.2849C106.911 13.2009 106.573 12.3488 105.87 11.6353C105.17 10.9232 104.357 10.5844 103.325 10.5784C102.665 10.5799 102.077 10.738 101.523 11.0617ZM101.06 18.2623C100.368 17.8513 99.8125 17.2687 99.4045 16.5461C98.9995 15.8234 98.7902 15.0481 98.7902 14.2457C98.7902 13.4388 98.995 12.665 99.3969 11.9424C99.8049 11.2273 100.363 10.6537 101.054 10.2578C101.744 9.85128 102.513 9.64654 103.325 9.64805V10.1132V9.64805C104.573 9.64504 105.684 10.1012 106.534 10.9834C107.408 11.8581 107.852 12.9977 107.846 14.2849C107.846 15.1324 107.654 15.9183 107.261 16.6108C106.875 17.3048 106.31 17.8664 105.595 18.2698C104.884 18.6703 104.115 18.8735 103.314 18.8735C102.519 18.8735 101.761 18.6688 101.06 18.2623V18.2623ZM99.814 10.7395C98.858 11.715 98.3988 12.8321 98.3928 14.2021C98.3988 15.6006 98.855 16.7388 99.7959 17.7113C100.75 18.6808 101.846 19.143 103.182 19.146C103.934 19.146 104.607 18.9939 105.229 18.6853C105.852 18.3797 106.421 17.9206 106.938 17.2928L107.763 16.2932V18.8825H108.13V5.61492H107.763V12.4241L106.92 11.2589C106.438 10.5935 105.898 10.1132 105.279 9.78956C104.675 9.46739 103.996 9.30631 103.219 9.3048C101.876 9.31082 100.774 9.77451 99.814 10.7395V10.7395ZM99.129 18.3617C98.0255 17.2326 97.4579 15.8099 97.4624 14.2021C97.4579 12.6138 98.0375 11.2107 99.1516 10.0861C100.26 8.95855 101.651 8.37142 103.219 8.37593C104.126 8.37593 104.969 8.57014 105.714 8.96758C106.116 9.17684 106.489 9.44029 106.832 9.75644V4.68454H108.597V5.14822V4.68454H109.061V19.8129H106.832V18.7305C106.459 19.0481 106.062 19.3131 105.64 19.5194C104.887 19.8927 104.062 20.0779 103.182 20.0779H103.159C101.605 20.0779 100.226 19.4908 99.129 18.3617" fill="white"/>
<path fill-rule="evenodd" clip-rule="evenodd" d="M116.515 10.1137C115.782 10.1137 115.103 10.2959 114.481 10.6587C113.861 11.0155 113.364 11.5228 112.993 12.1747C112.629 12.8296 112.445 13.5191 112.445 14.2462C112.445 14.9673 112.634 15.6598 113.004 16.3207C113.371 16.9756 113.87 17.495 114.49 17.8638C115.118 18.2266 115.789 18.4088 116.507 18.4088C117.228 18.4088 117.912 18.2266 118.558 17.8638C119.206 17.498 119.702 17.0072 120.046 16.3839C120.396 15.7637 120.572 15.0637 120.573 14.2853C120.573 13.1005 120.18 12.1054 119.396 11.3105C118.618 10.5126 117.657 10.1152 116.515 10.1137ZM121.788 9.10504V19.3497H120.488V17.5898C119.935 18.2613 119.313 18.7656 118.624 19.1058C117.939 19.443 117.186 19.6132 116.375 19.6132C114.923 19.6132 113.683 19.0893 112.656 18.0384C111.632 16.9846 111.121 15.7065 111.121 14.201C111.121 12.7242 111.638 11.4656 112.673 10.4133C113.707 9.3685 114.954 8.84159 116.409 8.84159C117.251 8.84159 118.011 9.02074 118.692 9.38054C119.375 9.73733 119.974 10.2733 120.488 10.9869V9.10504H121.788V9.10504Z" fill="white"/>
<path d="M114.252 18.2628C113.559 17.8549 113.002 17.2692 112.597 16.5481C112.192 15.824 111.979 15.0502 111.982 14.2463C111.979 13.4393 112.186 12.6655 112.588 11.9429C112.995 11.2278 113.556 10.6542 114.246 10.2583C114.935 9.85183 115.703 9.64709 116.513 9.64709V10.1138V10.579C115.858 10.579 115.27 10.737 114.711 11.0622C114.165 11.3784 113.731 11.818 113.398 12.4006C113.07 12.9922 112.912 13.5959 112.911 14.2463C112.911 14.8876 113.073 15.4928 113.409 16.092C113.742 16.6821 114.18 17.1353 114.722 17.4604C115.285 17.7841 115.867 17.9422 116.507 17.9422C117.15 17.9422 117.746 17.7841 118.33 17.4574C118.91 17.1292 119.334 16.7047 119.64 16.1537C119.95 15.6042 120.107 14.9945 120.108 14.2854C120.104 13.2015 119.762 12.3494 119.063 11.6358C118.36 10.9237 117.547 10.585 116.513 10.579V10.1138L116.516 9.64709C117.763 9.64558 118.874 10.1017 119.727 10.9839C120.596 11.8586 121.043 12.9982 121.039 14.2854C121.039 15.1345 120.843 15.9188 120.453 16.6098C120.066 17.3054 119.503 17.8654 118.785 18.2704C118.076 18.6678 117.308 18.8741 116.507 18.8741C115.711 18.8741 114.95 18.6678 114.252 18.2628ZM113.004 10.7385C112.049 11.7156 111.589 12.8326 111.584 14.2026C111.589 15.6012 112.046 16.7378 112.989 17.7118C113.94 18.6814 115.036 19.1435 116.376 19.1465C117.123 19.1465 117.799 18.9945 118.421 18.6859C119.042 18.3803 119.611 17.9211 120.128 17.2933L120.953 16.2892L120.951 18.8831H121.323V9.56881H120.953V12.4292L120.11 11.2594C119.629 10.594 119.089 10.1123 118.472 9.79011C117.863 9.46794 117.186 9.30686 116.409 9.30535C115.066 9.31137 113.964 9.77505 113.004 10.7385ZM112.322 18.3622C111.217 17.2331 110.649 15.8104 110.654 14.2026C110.649 12.6128 111.226 11.2113 112.341 10.0867C113.449 8.95909 114.842 8.37197 116.409 8.37648C117.316 8.37648 118.157 8.57069 118.904 8.96813C119.307 9.17739 119.679 9.44084 120.022 9.75699V8.63994H121.788V9.10512V8.63994H122.252V19.8135H120.022V18.7325C119.65 19.0502 119.253 19.3137 118.831 19.5214C118.079 19.8933 117.252 20.0784 116.376 20.0784H116.352C114.797 20.0784 113.418 19.4913 112.322 18.3622" fill="white"/>
<path d="M124.557 5.15035H125.874V19.3499H124.557V5.15035Z" fill="white"/>
<path d="M125.021 18.8832H125.408V5.61405H125.021V18.8832ZM124.09 19.8151V5.15036V4.68367H126.338V19.8151H124.09Z" fill="white"/>
<path fill-rule="evenodd" clip-rule="evenodd" d="M137.239 13.1939C137.063 12.4893 136.807 11.9278 136.464 11.5063C136.133 11.0847 135.69 10.749 135.139 10.4916C134.586 10.2326 134.007 10.1032 133.397 10.1017C132.393 10.1017 131.53 10.4268 130.808 11.0757C130.279 11.5424 129.882 12.2515 129.612 13.1939H137.239ZM137.239 15.9489L138.35 16.5375C137.984 17.2481 137.567 17.8277 137.087 18.2688C136.613 18.7084 136.072 19.0411 135.481 19.2759C134.883 19.5018 134.207 19.6132 133.456 19.6132C131.783 19.6132 130.478 19.0667 129.536 17.9737C128.595 16.8762 128.125 15.6402 128.125 14.2567C128.125 12.9575 128.524 11.7998 129.322 10.7836C130.331 9.48743 131.682 8.84159 133.379 8.84159C135.121 8.84159 136.518 9.50549 137.558 10.8303C138.299 11.7637 138.678 12.9334 138.689 14.332H129.48C129.506 15.5243 129.885 16.5044 130.62 17.2692C131.354 18.0279 132.261 18.4088 133.34 18.4088C133.861 18.4088 134.367 18.3185 134.856 18.1363C135.351 17.9541 135.773 17.7148 136.117 17.4077C136.464 17.1096 136.836 16.6233 137.239 15.9489" fill="white"/>
<path d="M136.611 12.7273C136.469 12.3464 136.296 12.0378 136.099 11.7924C135.817 11.4356 135.441 11.1465 134.943 10.9117C134.447 10.6813 133.94 10.5684 133.398 10.5669C132.493 10.5699 131.763 10.8484 131.117 11.422C130.783 11.7186 130.492 12.1477 130.261 12.7273H136.611ZM128.995 13.6591L129.166 13.063C129.451 12.0679 129.884 11.2745 130.497 10.728C131.298 10.0054 132.293 9.63354 133.4 9.63655C134.072 9.63806 134.724 9.78258 135.337 10.0686C135.941 10.3516 136.448 10.7325 136.826 11.2128C137.223 11.7036 137.503 12.3313 137.69 13.0795L137.238 13.1925V12.7273V13.1925L137.69 13.0795L137.835 13.6591H128.995ZM129.687 11.0698C128.951 12.0122 128.593 13.0509 128.59 14.2568C128.593 15.5319 129.014 16.6445 129.887 17.6712C130.742 18.6528 131.881 19.1405 133.455 19.1465C134.161 19.1465 134.78 19.0427 135.31 18.8424C135.85 18.6257 136.34 18.3246 136.773 17.9271C137.112 17.6125 137.425 17.2135 137.714 16.7258L137.406 16.5632C137.073 17.075 136.754 17.4725 136.425 17.757C136.03 18.1063 135.555 18.3742 135.016 18.5715C134.477 18.7717 133.914 18.8741 133.341 18.8741C132.15 18.8801 131.098 18.436 130.285 17.5914C129.463 16.7408 129.04 15.6253 129.014 14.3426L129.002 13.8669H138.205C138.121 12.7619 137.782 11.8616 137.192 11.1164C136.225 9.8985 135.004 9.31438 133.378 9.30535C131.802 9.31438 130.625 9.87893 129.687 11.0698ZM129.183 18.2764C128.177 17.1082 127.656 15.7457 127.659 14.2568C127.658 12.8613 128.096 11.5876 128.955 10.4962C130.036 9.09459 131.564 8.36745 133.378 8.37648C135.239 8.36745 136.811 9.11265 137.922 10.5398C138.735 11.5635 139.144 12.8477 139.153 14.3276L139.158 14.7973H129.979C130.078 15.6719 130.404 16.3675 130.953 16.9441C131.614 17.6185 132.371 17.9392 133.341 17.9422C133.806 17.9422 134.253 17.8624 134.696 17.6998C135.147 17.5327 135.515 17.3204 135.814 17.057C136.097 16.8131 136.451 16.3599 136.839 15.7111L137.067 15.3317L138.976 16.3389L138.765 16.7499C138.378 17.4966 137.931 18.1228 137.403 18.6091C136.885 19.0893 136.295 19.4537 135.644 19.7111C134.986 19.9565 134.253 20.0784 133.455 20.0784H133.424C131.668 20.0784 130.208 19.4747 129.183 18.2764Z" fill="white"/>
<path d="M48.3814 8.07104L47.2899 8.90657C46.6877 8.12523 45.9621 7.53058 45.116 7.12862C44.273 6.72214 43.3486 6.5159 42.337 6.51439C41.2335 6.51439 40.2097 6.78387 39.2688 7.3168C38.3264 7.84522 37.5948 8.5558 37.0754 9.45305C36.559 10.3443 36.3031 11.3484 36.3031 12.467C36.3031 14.1576 36.8782 15.5652 38.0359 16.6943C39.1951 17.8264 40.6584 18.3895 42.4228 18.3895C44.3618 18.3895 45.9832 17.6307 47.2899 16.1102L48.3814 16.9397C47.6919 17.8204 46.8278 18.4979 45.7935 18.9841C44.7638 19.4583 43.6121 19.6992 42.337 19.6992C39.9147 19.6992 38.0027 18.8923 36.6027 17.2784C35.4299 15.916 34.8428 14.272 34.8428 12.3435C34.8428 10.3187 35.5518 8.61602 36.9685 7.234C38.3957 5.84446 40.1781 5.15044 42.3189 5.15044C43.6121 5.15044 44.7788 5.40788 45.8221 5.92275C46.8624 6.4346 47.716 7.14819 48.3814 8.07104Z" fill="white"/>
<path d="M37.2931 7.5671C35.9607 8.87083 35.3134 10.4275 35.3074 12.3454C35.3104 14.1791 35.8569 15.6951 36.9543 16.9747C38.2686 18.4787 40.0149 19.2284 42.3364 19.2344C43.5528 19.2344 44.6352 19.0071 45.5957 18.5615C46.4207 18.1746 47.1222 17.6627 47.7109 17.0139L47.348 16.7399C46.0172 18.1354 44.3401 18.8611 42.4222 18.855C40.5614 18.8596 38.9536 18.2453 37.7101 17.0259C36.4666 15.8185 35.8328 14.2634 35.8373 12.4674C35.8358 11.2766 36.1143 10.1851 36.6713 9.21859C37.2313 8.25058 38.0322 7.47376 39.0394 6.91222C40.0481 6.34015 41.1591 6.04959 42.3379 6.04959C43.4113 6.04959 44.4109 6.2709 45.3142 6.70899C46.094 7.07782 46.7805 7.60172 47.3631 8.26413L47.7274 7.98411C47.1523 7.29461 46.4553 6.75114 45.6153 6.34015C44.6412 5.85991 43.5498 5.61753 42.3183 5.61602C40.2769 5.61903 38.6359 6.26186 37.2931 7.5671ZM36.2513 17.5829C35.0033 16.1392 34.374 14.3658 34.377 12.3454C34.371 10.2092 35.1403 8.35596 36.6442 6.90018C38.1527 5.42483 40.0797 4.67962 42.3183 4.68414C43.6732 4.68414 44.9152 4.95663 46.0262 5.50462C47.1297 6.04508 48.0496 6.81286 48.7587 7.79743L48.3808 8.07143L48.7587 7.79743L49.0236 8.16326L47.2035 9.56033L46.9205 9.18998C46.3605 8.45984 45.695 7.91938 44.9137 7.54753C44.1369 7.17267 43.2848 6.97997 42.3364 6.97997C41.3081 6.97997 40.3702 7.22536 39.4956 7.72216C38.6194 8.21445 37.9555 8.8633 37.4767 9.68378C37.0055 10.5043 36.7677 11.4181 36.7677 12.4674C36.7722 14.0511 37.2916 15.3112 38.3604 16.362C39.4353 17.4053 40.7556 17.9202 42.4222 17.9247C44.2393 17.9171 45.6996 17.2352 46.937 15.8065L47.2216 15.4738L49.0387 16.8528L48.7481 17.2276C48.0119 18.164 47.0861 18.8912 45.9871 19.4075C44.8926 19.9119 43.6702 20.1648 42.3364 20.1648H42.3047C39.7966 20.1648 37.7312 19.2961 36.2513 17.5829" fill="white"/>
<path d="M15.0513 13.3522L25.0671 2.86519V5.28898L17.3065 13.3522H15.0513Z" fill="white"/>
<path d="M17.2664 13.3139L25.012 5.28826V3.00146L15.1798 13.2988L17.2664 13.3139ZM15.0503 13.4057V13.3515L15.091 13.3891L15.0503 13.3515V13.4057H14.9224L25.1219 2.72596L25.1053 5.32589L17.307 13.4057H15.0503V13.4057Z" fill="white"/>
<path d="M21.1598 15.2739V18.2427H25.083C25.9155 18.2427 26.5884 17.5698 26.5884 16.7372C26.5884 15.9047 25.9155 15.2288 25.083 15.2288L21.1598 15.2739ZM21.1598 20.0854H20.8075H19.3502V15.8535C17.649 18.4038 14.7465 20.0854 11.4495 20.0854C6.20601 20.0854 1.95459 15.834 1.95459 10.5904C1.95459 5.34843 6.20601 1.09701 11.4495 1.09701C15.2779 1.09701 18.5779 3.36423 20.0788 6.63108L18.4605 8.32924C17.5045 5.36499 14.7254 3.22272 11.4495 3.22272C7.38027 3.22272 4.08181 6.52118 4.08181 10.5904C4.08181 14.6597 7.38027 17.9567 11.4495 17.9567C14.5417 17.9567 17.1914 16.0508 18.2828 13.3484L19.3577 13.3469L20.535 13.3484L25.083 13.3469C25.9155 13.3469 26.5884 12.6755 26.5884 11.8415C26.5884 11.009 25.9155 10.3345 25.083 10.3345H21.8176L23.6995 8.45118H25.083C26.9543 8.45118 28.4718 9.96718 28.4718 11.8415C28.4718 12.805 28.0698 13.6706 27.427 14.2909C28.0698 14.9066 28.4718 15.7753 28.4718 16.7372C28.4718 18.6085 26.9753 20.0854 25.1041 20.0854H21.1598Z" fill="white"/>
</g>
</svg>
