<svg width="37" height="37" viewBox="0 0 37 37" fill="none" xmlns="http://www.w3.org/2000/svg">
<path fill-rule="evenodd" clip-rule="evenodd" d="M18.0518 34.9085C27.3805 34.9085 34.943 27.3461 34.943 18.0174C34.943 8.68865 27.3805 1.12622 18.0518 1.12622C8.72308 1.12622 1.16064 8.68865 1.16064 18.0174C1.16064 27.3461 8.72308 34.9085 18.0518 34.9085ZM13.5368 32.447C14.9626 32.8926 16.4792 33.1328 18.0518 33.1328C19.614 33.1328 21.1209 32.8958 22.5384 32.4558V28.7608C22.5389 28.1647 22.4205 27.5745 22.1903 27.0247C21.9601 26.4749 21.6227 25.9765 21.1977 25.5585C26.1595 24.6858 28.2357 21.663 28.2357 18.0666C28.2357 16.3212 27.655 14.7059 26.5149 13.411C27.159 11.408 26.4918 9.69615 26.3397 9.30614C26.3323 9.28707 26.3261 9.27117 26.3213 9.25854C24.4211 9.08611 22.4504 10.5007 22.0528 10.8034C20.881 10.4867 19.5508 10.3142 18.0587 10.3142C16.5737 10.3142 15.2471 10.4796 14.0858 10.7928C13.9204 10.6626 11.7949 9.01573 9.7504 9.19872C9.74654 9.20862 9.74178 9.2206 9.73621 9.23459C9.58947 9.60336 8.88634 11.3703 9.57797 13.4215C8.4519 14.713 7.8783 16.3141 7.8783 18.056C7.8783 21.6454 9.94043 24.6647 14.8881 25.5515C14.2969 26.1251 13.8676 26.8641 13.667 27.691C12.7486 27.9198 10.9363 28.152 10.0073 26.7761C8.72286 24.8793 7.61438 24.1791 6.52701 24.7386C6.28562 25.0171 6.5978 25.2271 7.04169 25.5256C7.43905 25.7928 7.94195 26.131 8.24779 26.6529C8.29467 26.7302 8.33882 26.8638 8.39503 27.034C8.72284 28.0262 9.46052 30.2589 13.5368 29.7813V32.447Z" fill="#928A97"/>
</svg>
