<svg width="37" height="37" viewBox="0 0 37 37" fill="none" xmlns="http://www.w3.org/2000/svg">
<path fill-rule="evenodd" clip-rule="evenodd" d="M18.1207 34.9085C27.4494 34.9085 35.0118 27.3461 35.0118 18.0174C35.0118 8.68865 27.4494 1.12622 18.1207 1.12622C8.79192 1.12622 1.22949 8.68865 1.22949 18.0174C1.22949 27.3461 8.79192 34.9085 18.1207 34.9085ZM13.4302 18.0174C13.4302 15.4344 15.5381 13.3266 18.121 13.3266C20.704 13.3266 22.8119 15.4344 22.8119 18.0174C22.8119 20.6003 20.704 22.7082 18.121 22.7082C15.5381 22.7082 13.4302 20.6003 13.4302 18.0174ZM10.9036 18.0174C10.9036 22.0114 14.127 25.2348 18.121 25.2348C22.1151 25.2348 25.3385 22.0114 25.3385 18.0174C25.3385 14.0233 22.1151 10.7999 18.121 10.7999C14.127 10.7999 10.9036 14.0233 10.9036 18.0174ZM23.9485 10.5043C23.9485 11.4369 24.7016 12.1899 25.6341 12.1899C25.8555 12.1902 26.0748 12.1468 26.2795 12.0622C26.4841 11.9776 26.67 11.8534 26.8266 11.6969C26.9832 11.5403 27.1073 11.3543 27.192 11.1497C27.2766 10.9451 27.32 10.7258 27.3197 10.5043C27.3197 9.57181 26.5666 8.81874 25.6341 8.81874C24.7016 8.81874 23.9485 9.57181 23.9485 10.5043Z" fill="#928A97"/>
</svg>
