<svg width="102" height="30" viewBox="0 0 102 30" fill="none" xmlns="http://www.w3.org/2000/svg">
<g opacity="0.4" clip-path="url(#clip0_94_710)">
<path d="M91.2541 28.5586V8.30742L95.8737 8.33668V10.4166L95.8539 11.012C96.1103 9.94744 97.8195 8.1345 100.966 7.90955V12.7748C98.6618 12.9187 96.1362 13.5993 96.0549 17.0946L96.0466 17.0948V28.5596H91.2541V28.5586ZM36.951 28.9808C31.1602 28.9808 26.4482 24.2692 26.4482 18.4778C26.4482 12.6865 31.16 7.97509 36.951 7.97509C42.7421 7.97509 47.4537 12.6865 47.4537 18.4778C47.4537 24.2692 42.7423 28.9808 36.951 28.9808ZM37.113 12.58C33.8607 12.58 31.2152 15.2256 31.2152 18.4776C31.2152 21.7299 33.8607 24.3758 37.113 24.3758C40.3649 24.3758 43.0106 21.7299 43.0106 18.4776C43.0106 15.2256 40.3651 12.58 37.113 12.58ZM59.3443 28.9882C56.9176 28.9482 55.2715 28.4281 53.585 26.819L53.6229 26.7953L53.5069 28.5755H49.0919V4.59359L53.8836 -0.184082L53.8692 10.0922L53.8783 10.0639C55.128 8.86045 57.149 7.98101 59.4482 7.98305L59.4991 7.98287C64.8004 7.98287 69.2788 12.7928 69.2788 18.4858C69.2788 21.2308 68.1872 23.865 66.2051 25.9033C64.3127 27.849 61.8488 28.9735 59.4447 28.9885H59.3443V28.9882ZM58.7763 12.5874C57.8245 12.5882 56.887 12.8191 56.0437 13.2603C55.2003 13.7016 54.4762 14.3402 53.9329 15.1217L53.8844 15.1911V21.7795L53.9329 21.849C54.4762 22.6305 55.2003 23.2691 56.0437 23.7103C56.887 24.1516 57.8245 24.3824 58.7763 24.3832C62.0282 24.3832 64.6739 21.7373 64.6739 18.4851C64.6739 15.233 62.0284 12.5874 58.7763 12.5874Z" fill="white"/>
<path d="M77.4438 28.8327C73.0966 28.8327 70.0601 26.2513 70.0601 22.5552C70.0601 18.3824 73.3088 16.1768 79.4547 16.1768H83.8845V15.4166C83.8845 13.6592 82.2861 11.8412 79.6106 11.8412C77.6934 11.8433 76.0303 12.415 75.0806 13.3835L72.4864 10.789C72.7909 10.4688 73.1218 10.1748 73.4758 9.91033C75.1623 8.64949 77.3516 7.98297 79.8065 7.98297C85.1164 7.98297 88.5474 10.9009 88.5474 15.4164V28.5811H83.97L83.9663 26.6423L83.5074 27.1018C81.9001 28.7124 80.0631 28.8327 77.4438 28.8327ZM79.5771 19.6314C76.5248 19.6314 74.977 20.5714 74.977 22.4258C74.977 24.0347 76.3613 25.0745 78.5034 25.0745C81.7724 25.0745 83.8845 23.3647 83.8845 20.7184V19.6316H79.5771V19.6314Z" fill="white"/>
<path d="M0.664378 8.32929H5.36281V28.5805H0.664378V8.32929ZM2.98814 5.63302C1.54123 5.63302 0.364258 4.45586 0.364258 3.00895C0.364258 1.56204 1.54123 0.384888 2.98814 0.384888C4.43523 0.384888 5.61239 1.56186 5.61239 3.00895C5.61239 4.45605 4.43523 5.63302 2.98814 5.63302Z" fill="white"/>
<path d="M9.90345 22.8764C11.8236 24.3152 13.7858 24.9547 16.5557 24.9547C19.7028 24.9547 21.1266 24.0179 21.1266 22.6319C21.1266 21.1705 19.7402 20.5336 15.9186 20.1965C10.8984 19.7469 7.56358 18.3232 7.56358 14.0519C7.56358 10.3802 11.123 7.98242 16.031 7.98242C19.3283 7.98242 22.4004 9.10644 24.7984 11.0921C24.8273 11.1169 24.8534 11.1419 24.8762 11.1666L22.1016 14.0098C20.4371 12.7345 18.3159 12.0286 15.8066 12.0286C13.2587 12.0286 11.8727 12.7781 11.8727 13.9021C11.8727 15.1011 12.9965 15.7004 16.4061 16.0375C21.6513 16.5621 25.4353 18.248 25.4353 22.5567C25.4353 26.6406 21.6137 29.0009 16.4811 29.0009C12.7717 29.0009 9.81199 28.1018 7.11423 25.8538C7.0887 25.8327 7.06532 25.8092 7.04443 25.7836L9.90345 22.8764Z" fill="white"/>
</g>
<defs>
<clipPath id="clip0_94_710">
<rect width="101.156" height="29.7288" fill="white" transform="translate(0.549316)"/>
</clipPath>
</defs>
</svg>
