<svg width="37" height="37" viewBox="0 0 37 37" fill="none" xmlns="http://www.w3.org/2000/svg">
<g clip-path="url(#clip0_107_254)">
<path d="M18.0861 0.720947C8.53336 0.720947 0.789551 8.46476 0.789551 18.0175C0.789551 27.5702 8.53336 35.3141 18.0861 35.3141C27.6388 35.3141 35.3827 27.5702 35.3827 18.0175C35.3827 8.46476 27.6388 0.720947 18.0861 0.720947ZM13.8521 25.1866H10.3495V13.915H13.8521V25.1866ZM12.0792 12.5312C10.9729 12.5312 10.2576 11.7475 10.2576 10.7782C10.2576 9.78903 10.9945 9.0287 12.1242 9.0287C13.2539 9.0287 13.9457 9.78903 13.9674 10.7782C13.9674 11.7475 13.2539 12.5312 12.0792 12.5312ZM26.6443 25.1866H23.1417V18.94C23.1417 17.486 22.6337 16.4986 21.367 16.4986C20.3995 16.4986 19.8248 17.1671 19.5707 17.8103C19.477 18.0391 19.4536 18.3634 19.4536 18.6859V25.1848H15.9493V17.5094C15.9493 16.1023 15.9042 14.9257 15.8574 13.9132H18.9005L19.0608 15.4789H19.1311C19.5923 14.7438 20.722 13.6591 22.612 13.6591C24.9164 13.6591 26.6443 15.2032 26.6443 18.522V25.1866Z" fill="#928A97"/>
</g>
<defs>
<clipPath id="clip0_107_254">
<rect width="36.0345" height="36.0345" fill="white" transform="translate(0.0688477)"/>
</clipPath>
</defs>
</svg>
