<svg width="124" height="26" viewBox="0 0 124 26" fill="none" xmlns="http://www.w3.org/2000/svg">
<g opacity="0.4" clip-path="url(#clip0_94_777)">
<path d="M6.77987 23.6861H0.857422V2.39862H11.1002L22.8514 18.2911V2.39862H28.7738V23.6861H18.7385L6.77987 7.52225V23.6861ZM57.1099 17.1032C57.1099 20.0624 56.6149 21.0829 55.7954 22.0611C54.5392 23.5171 52.7111 23.9559 49.1887 23.9559H39.0766C35.5542 23.9559 33.723 23.5171 32.4684 22.0611C31.6489 21.0829 31.1539 20.0624 31.1539 17.1032V8.897C31.1539 5.9395 31.6489 4.92062 32.4684 3.94075C33.7246 2.48312 35.5542 2.04437 39.0766 2.04437H49.1887C52.7111 2.04437 54.5392 2.48312 55.7954 3.94075C56.6149 4.92062 57.1099 5.9395 57.1099 8.897V17.1032ZM48.9397 18.5625C50.2927 18.5625 50.7693 18.478 51.0937 18.166C51.3966 17.8751 51.5303 17.4997 51.5303 16.2485V9.75175C51.5303 8.5005 51.3966 8.12837 51.0937 7.83587C50.7693 7.52225 50.2927 7.43937 48.9397 7.43937H39.3241C37.9711 7.43937 37.4945 7.52225 37.1716 7.83587C36.8672 8.12837 36.7334 8.5005 36.7334 9.75175V16.2485C36.7334 17.4997 36.8672 17.8751 37.1716 18.166C37.4945 18.478 37.9711 18.5625 39.3241 18.5625H48.9397ZM65.7169 2.39862V23.6861H59.5284V2.39862H65.7169ZM76.1719 2.39862H84.3421L73.3152 12.355L85.752 23.6861H77.0098L65.7169 12.5841L76.1719 2.39862ZM86.8929 2.39862H93.0828V23.6861H86.8929V2.39862ZM116.679 23.6861L114.848 19.9779H102.872L101.062 23.6845H94.2252L105.195 2.39862H112.889L123.857 23.6861H116.679ZM105.023 15.3547H112.718L108.87 7.64737L105.023 15.3547Z" fill="white"/>
</g>
<defs>
<clipPath id="clip0_94_777">
<rect width="123" height="26" fill="white" transform="translate(0.857422)"/>
</clipPath>
</defs>
</svg>
