<svg width="30" height="21" viewBox="0 0 30 21" fill="none" xmlns="http://www.w3.org/2000/svg">
<path d="M15.6805 5.30205L12.1945 5.90582C12.0488 5.46976 11.8172 5.05467 11.4999 4.66054C11.1912 4.26641 10.771 3.94356 10.2393 3.69199C9.70761 3.44041 9.043 3.31463 8.24547 3.31463C7.15636 3.31463 6.24735 3.55362 5.51842 4.03161C4.78949 4.50121 4.42502 5.10918 4.42502 5.85551C4.42502 6.50121 4.66943 7.02113 5.15824 7.41526C5.64705 7.80939 6.43601 8.13224 7.52512 8.38381L10.6638 9.08821C12.4818 9.49911 13.8368 10.1322 14.7286 10.9876C15.6205 11.8429 16.0664 12.954 16.0664 14.3209C16.0664 15.4781 15.7234 16.5096 15.0374 17.4153C14.3599 18.3125 13.4123 19.0169 12.1945 19.5285C10.9854 20.04 9.58327 20.2958 7.9882 20.2958C5.77569 20.2958 3.97052 19.8345 2.57269 18.9121C1.17486 17.9813 0.317298 16.6605 0 14.9498L3.71754 14.3964C3.94908 15.344 4.42503 16.061 5.14538 16.5473C5.86573 17.0253 6.80476 17.2643 7.96247 17.2643C9.22309 17.2643 10.2307 17.0085 10.9854 16.497C11.74 15.9771 12.1174 15.344 12.1174 14.5976C12.1174 13.9939 11.8858 13.4865 11.4227 13.0756C10.9682 12.6647 10.2693 12.3545 9.326 12.1448L5.9815 11.4278C4.13774 11.0169 2.77422 10.3628 1.89093 9.46557C1.01621 8.5683 0.578855 7.43203 0.578855 6.05677C0.578855 4.9163 0.904729 3.9184 1.55648 3.06305C2.20822 2.20771 3.10867 1.54104 4.2578 1.06305C5.40694 0.576682 6.72329 0.333496 8.20688 0.333496C10.3422 0.333496 12.023 0.786326 13.2493 1.69199C14.4757 2.58926 15.2861 3.79261 15.6805 5.30205Z" fill="white"/>
<path d="M20.2495 20.3335C18.9975 20.3335 17.8655 20.1071 16.8536 19.6543C15.8416 19.193 15.0398 18.5264 14.4481 17.6542C13.865 16.7821 13.5734 15.7129 13.5734 14.4467C13.5734 13.3566 13.7878 12.4593 14.2166 11.7549C14.6453 11.0505 15.2242 10.4928 15.9531 10.0819C16.682 9.67102 17.4967 9.36075 18.3972 9.15111C19.2976 8.94146 20.2152 8.78213 21.1499 8.67312C22.3334 8.53895 23.2939 8.42993 24.0314 8.34607C24.7689 8.25383 25.3048 8.10708 25.6393 7.90582C25.9737 7.70456 26.141 7.37752 26.141 6.92469V6.83664C26.141 5.73811 25.8237 4.88695 25.1891 4.28318C24.563 3.67941 23.6283 3.37752 22.3848 3.37752C21.0899 3.37752 20.0694 3.65844 19.3233 4.22029C18.5858 4.77375 18.0756 5.3901 17.7926 6.06934L14.178 5.26431C14.6067 4.09031 15.2328 3.14272 16.056 2.42155C16.8879 1.69199 17.844 1.16368 18.9246 0.836639C20.0051 0.50121 21.1414 0.333496 22.3334 0.333496C23.1223 0.333496 23.9585 0.425739 24.8418 0.610226C25.7336 0.786326 26.5655 1.11337 27.3373 1.59136C28.1176 2.06934 28.7565 2.75278 29.2539 3.64167C29.7513 4.52217 30 5.66683 30 7.07563V19.9058H26.2439V17.2643H26.0895C25.8408 17.7507 25.4678 18.2287 24.9704 18.6983C24.473 19.1679 23.8341 19.5578 23.0537 19.8681C22.2734 20.1784 21.3386 20.3335 20.2495 20.3335ZM21.0856 17.3146C22.149 17.3146 23.058 17.1092 23.8127 16.6983C24.5759 16.2874 25.1548 15.7507 25.5492 15.0882C25.9523 14.4174 26.1538 13.7004 26.1538 12.9373V10.4467C26.0166 10.5809 25.7508 10.7067 25.3563 10.8241C24.9704 10.9331 24.5287 11.0295 24.0314 11.1134C23.534 11.1888 23.0494 11.2601 22.5778 11.3272C22.1061 11.3859 21.7117 11.4362 21.3944 11.4781C20.6483 11.5704 19.9665 11.7255 19.3491 11.9436C18.7402 12.1616 18.2514 12.4761 17.8826 12.887C17.5225 13.2895 17.3424 13.8262 17.3424 14.497C17.3424 15.4278 17.694 16.1322 18.3972 16.6102C19.1004 17.0798 19.9965 17.3146 21.0856 17.3146Z" fill="white"/>
</svg>
