<svg width="39" height="46" viewBox="0 0 39 46" fill="none" xmlns="http://www.w3.org/2000/svg">
<g opacity="0.4" clip-path="url(#clip0_94_779)">
<path d="M28.8883 0.203857L19.3252 16.7625L9.76639 0.203857H0.204102L19.3246 33.3212L38.4506 0.203857H28.8883Z" fill="white"/>
<path d="M22.4605 38.8898C20.8223 38.8898 19.4907 40.2196 19.4907 41.8565C19.4907 43.4891 20.8223 44.8208 22.4605 44.8208C24.0928 44.8208 25.4273 43.4891 25.4273 41.8565C25.4273 40.2196 24.0928 38.8898 22.4605 38.8898ZM22.4605 44.4103C21.0582 44.4103 19.9174 43.263 19.9174 41.8565C19.9174 40.446 21.0582 39.3012 22.4605 39.3012C23.8598 39.3012 24.9993 40.446 24.9993 41.8565C24.9993 43.263 23.8598 44.4103 22.4605 44.4103Z" fill="white"/>
<path d="M29.6263 39.0106V44.0514L26.7167 39.0106H26.1782V44.6999H26.6034V39.6596L29.5143 44.6999H30.0527V39.0106H29.6263Z" fill="white"/>
<path d="M15.7842 39.0106V44.6999H19.0427V44.2902H16.2114V42.0125H18.6311V41.6009H16.2114V39.4214H19.0427V39.0106H15.7842Z" fill="white"/>
<path d="M14.7533 39.0106L11.9162 43.9314L9.07749 39.0106H8.59863L11.9162 44.7539L15.2333 39.0106H14.7533Z" fill="white"/>
</g>
<defs>
<clipPath id="clip0_94_779">
<rect width="38.6544" height="45.0249" fill="white"/>
</clipPath>
</defs>
</svg>
